<mxfile host="Electron" modified="2024-04-09T13:42:22.647Z" agent="Mozilla/5.0 (Windows NT 10.0; Win64; x64) AppleWebKit/537.36 (KHTML, like Gecko) draw.io/24.1.0 Chrome/120.0.6099.109 Electron/28.1.0 Safari/537.36" etag="I4bi4zPx6wBT1jOtXVVi" version="24.1.0" type="device">
  <diagram id="C5RBs43oDa-KdzZeNtuy" name="Page-1">
    <mxGraphModel dx="2580" dy="1242" grid="0" gridSize="10" guides="1" tooltips="1" connect="1" arrows="1" fold="1" page="1" pageScale="1" pageWidth="2339" pageHeight="3300" math="0" shadow="0">
      <root>
        <mxCell id="WIyWlLk6GJQsqaUBKTNV-0" />
        <mxCell id="WIyWlLk6GJQsqaUBKTNV-1" parent="WIyWlLk6GJQsqaUBKTNV-0" />
        <mxCell id="wd7movWwi8j4sVm-7Usf-2" value="" style="edgeStyle=orthogonalEdgeStyle;rounded=0;orthogonalLoop=1;jettySize=auto;html=1;" parent="WIyWlLk6GJQsqaUBKTNV-1" source="wd7movWwi8j4sVm-7Usf-0" target="wd7movWwi8j4sVm-7Usf-1" edge="1">
          <mxGeometry relative="1" as="geometry" />
        </mxCell>
        <mxCell id="wd7movWwi8j4sVm-7Usf-0" value="&lt;font style=&quot;font-size: 15px;&quot;&gt;Начало&lt;/font&gt;" style="strokeWidth=2;html=1;shape=mxgraph.flowchart.start_1;whiteSpace=wrap;" parent="WIyWlLk6GJQsqaUBKTNV-1" vertex="1">
          <mxGeometry x="520" y="30" width="100" height="60" as="geometry" />
        </mxCell>
        <mxCell id="wd7movWwi8j4sVm-7Usf-4" value="" style="edgeStyle=orthogonalEdgeStyle;rounded=0;orthogonalLoop=1;jettySize=auto;html=1;" parent="WIyWlLk6GJQsqaUBKTNV-1" source="wd7movWwi8j4sVm-7Usf-1" edge="1">
          <mxGeometry relative="1" as="geometry">
            <mxPoint x="570" y="330" as="targetPoint" />
          </mxGeometry>
        </mxCell>
        <mxCell id="wd7movWwi8j4sVm-7Usf-1" value="&lt;font style=&quot;font-size: 16px;&quot;&gt;Ввод f, a, b, epsilon&lt;/font&gt;&lt;div&gt;&lt;span style=&quot;font-size: 16px;&quot;&gt;Началиный h = 2&lt;/span&gt;&lt;/div&gt;" style="whiteSpace=wrap;html=1;strokeWidth=2;" parent="WIyWlLk6GJQsqaUBKTNV-1" vertex="1">
          <mxGeometry x="490" y="130" width="160" height="60" as="geometry" />
        </mxCell>
        <mxCell id="wd7movWwi8j4sVm-7Usf-14" value="" style="whiteSpace=wrap;html=1;" parent="WIyWlLk6GJQsqaUBKTNV-1" vertex="1">
          <mxGeometry x="335" y="250" width="470" height="140" as="geometry" />
        </mxCell>
        <mxCell id="wd7movWwi8j4sVm-7Usf-22" value="" style="edgeStyle=orthogonalEdgeStyle;rounded=0;orthogonalLoop=1;jettySize=auto;html=1;" parent="WIyWlLk6GJQsqaUBKTNV-1" source="wd7movWwi8j4sVm-7Usf-19" target="wd7movWwi8j4sVm-7Usf-21" edge="1">
          <mxGeometry relative="1" as="geometry" />
        </mxCell>
        <mxCell id="wd7movWwi8j4sVm-7Usf-19" value="&lt;font style=&quot;font-size: 16px;&quot;&gt;While True&lt;/font&gt;" style="strokeWidth=2;html=1;shape=mxgraph.flowchart.loop_limit;whiteSpace=wrap;" parent="WIyWlLk6GJQsqaUBKTNV-1" vertex="1">
          <mxGeometry x="500" y="440" width="140" height="80" as="geometry" />
        </mxCell>
        <mxCell id="wd7movWwi8j4sVm-7Usf-20" style="edgeStyle=orthogonalEdgeStyle;rounded=0;orthogonalLoop=1;jettySize=auto;html=1;exitX=0.5;exitY=1;exitDx=0;exitDy=0;entryX=0.5;entryY=0;entryDx=0;entryDy=0;entryPerimeter=0;" parent="WIyWlLk6GJQsqaUBKTNV-1" source="wd7movWwi8j4sVm-7Usf-14" target="wd7movWwi8j4sVm-7Usf-19" edge="1">
          <mxGeometry relative="1" as="geometry" />
        </mxCell>
        <mxCell id="wd7movWwi8j4sVm-7Usf-25" style="edgeStyle=orthogonalEdgeStyle;rounded=0;orthogonalLoop=1;jettySize=auto;html=1;exitX=0.5;exitY=1;exitDx=0;exitDy=0;entryX=0.5;entryY=0;entryDx=0;entryDy=0;" parent="WIyWlLk6GJQsqaUBKTNV-1" source="wd7movWwi8j4sVm-7Usf-21" target="wd7movWwi8j4sVm-7Usf-23" edge="1">
          <mxGeometry relative="1" as="geometry" />
        </mxCell>
        <mxCell id="wd7movWwi8j4sVm-7Usf-21" value="&lt;font style=&quot;font-size: 16px;&quot;&gt;Увеличиаем h и количество разюиений&lt;/font&gt;" style="whiteSpace=wrap;html=1;strokeWidth=2;" parent="WIyWlLk6GJQsqaUBKTNV-1" vertex="1">
          <mxGeometry x="760" y="435" width="180" height="90" as="geometry" />
        </mxCell>
        <mxCell id="wd7movWwi8j4sVm-7Usf-38" value="" style="edgeStyle=orthogonalEdgeStyle;rounded=0;orthogonalLoop=1;jettySize=auto;html=1;" parent="WIyWlLk6GJQsqaUBKTNV-1" source="wd7movWwi8j4sVm-7Usf-23" target="wd7movWwi8j4sVm-7Usf-37" edge="1">
          <mxGeometry relative="1" as="geometry" />
        </mxCell>
        <mxCell id="wd7movWwi8j4sVm-7Usf-23" value="" style="whiteSpace=wrap;html=1;" parent="WIyWlLk6GJQsqaUBKTNV-1" vertex="1">
          <mxGeometry x="615" y="600" width="470" height="140" as="geometry" />
        </mxCell>
        <mxCell id="wd7movWwi8j4sVm-7Usf-31" value="" style="edgeStyle=orthogonalEdgeStyle;rounded=0;orthogonalLoop=1;jettySize=auto;html=1;" parent="WIyWlLk6GJQsqaUBKTNV-1" source="wd7movWwi8j4sVm-7Usf-26" target="wd7movWwi8j4sVm-7Usf-30" edge="1">
          <mxGeometry relative="1" as="geometry" />
        </mxCell>
        <mxCell id="wd7movWwi8j4sVm-7Usf-26" value="&lt;font style=&quot;font-size: 16px;&quot;&gt;| i&lt;sub&gt;1 &lt;/sub&gt;&amp;lt; i&lt;sub&gt;2&lt;/sub&gt;&amp;nbsp;| &amp;lt; epsilon&lt;/font&gt;" style="rhombus;whiteSpace=wrap;html=1;" parent="WIyWlLk6GJQsqaUBKTNV-1" vertex="1">
          <mxGeometry x="760" y="1000" width="180" height="120" as="geometry" />
        </mxCell>
        <mxCell id="wd7movWwi8j4sVm-7Usf-28" value="" style="shape=image;verticalLabelPosition=bottom;labelBackgroundColor=default;verticalAlign=top;aspect=fixed;imageAspect=0;image=data:image/png,iVBORw0KGgoAAAANSUhEUgAAAi0AAACICAYAAAArp9sGAAAAAXNSR0IArs4c6QAAAARnQU1BAACxjwv8YQUAAAAJcEhZcwAADsMAAA7DAcdvqGQAACLHSURBVHhe7Z0LuJVT/seXW2OacqmMSBGpdJmilEuRqcQ0zygMmpjIRFJhSLrNIAYpCaVmimq6GAY1GUxCV90zqolENakGk6hJCO3/+azedf7v2Z3OZV/eyz7fz/Nsu732UWe/72+v9V2/2zookYcRQgghhIg4B3vPQgghhBCRRqJFCCGEELFAokUIIYQQsUCiRQghhBCxQKJFCCGEELFAokUIIYQQsUCiRQghhBCxQKJFCCGEELFAokUIIYQQsUCiRQghhBCxQKJFCCGEELFAokUIIYQQsUCiRQghhBCxQKJFCCGEELFAokUIIYQQsUCiRQghhBCxQKJFCCGEELFAoiXHuPTSS023bt28V0IIIURqLFu2zBx00EFmy5Yt3kj4SLTkGC+++KI544wzvFdCCCFEajRt2tT85Cc/MdOmTfNGwkeiJYdAsED79u3tsxBCCJEOCJcpU6Z4r8JHoiWHQA03bNjQ1KhRwxsRQgghUodN8FtvvWWWLFnijYSLREsO8dprr5lzzz3XeyWEEEKkh1tTZs+ebZ/DRqIlR8Cg/vOf/5hmzZp5I0IIIUR6HHvssdZ7P3fuXG8kXCRacgSngs8880z7LIQQQmQCNsNz5szxXoWLREuOgEGVL1/eNGjQwBsRQggh0gfRsmvXrkiEiCRacgSMSaEhIYQQmcZ58CVaREZYvXq1fa5Zs6Z9FvHg3XffNS+88IL3Soho8OWXX5oxY8bYZyHg5JNPts9urQkTiZYcYNWqVfZZoiVeMAGQ5CZElCCh/5tvvrHhZiGARNxDDjlEokVkBmdITg2L6PP999+bzZs35wvNRCJhVqxYYa644gpzxBFHmLp165oRI0aEttv96quvzPz5802PHj3M2rVrvVFRFtiwYYM57bTTbPt22Lhxo7nhhhtM5cqVzUknnWQGDhxo/vvf/9r3RNmBuYq5YM+ePd5IOEi05AAKD8WPzz//3AqSo48+2r6mnPCVV14xY8eONTt27LBho5dfftlcd9115pNPPrE/EwSfffaZufjii02XLl3M0qVLbVMpUXZAPP/rX//Kb1BJCPPJJ58099xzj7UNhOymTZtMx44dJWbLGG59CdvbItGSAyg8FD/+/e9/m+OOO8788Ic/tOJl+fLlplevXtbLwg63Xr165s477zSvvvqqee6557z/K/uwm0Y8Pfvss0rsLoPs3LnT/O9//zPHH3+89QbOmjXL9O7d29oqnHDCCaZv375m+/bt5qmnngp91y2CIyp5LRItMWf37t3WnfuDH/wgf2IR0eef//ynady4sf3ztm3bzPPPP28eeuihAosAB5U1b97cThKEa4TINojpKlWqmIoVK9oSVzyA/fr1s2LGweaILqnvvPOOFTiibEBoEPDEhYlES8xxLlqdNxQeCIqePXva3SkPzujAzf7GG2+Y8847z7Ro0cJ88MEH3k/v+3mSHU888UT7Gu9KtWrV7J/9HHzwwTb5TYhUWbBggfXa4b275ZZbbIItXpIBAwZYW33kkUesR8XBgoRYhsMPPzzfRv3wd8kuyx7Vq1e3z++99559DguJlpjjRIszKBE8hHieeOIJM2HCBNOoUSO7E50+fbrZu3evefrpp813331nFi9e7P20MZ9++qn1jLl8Fp4Jx9x///2mXLlydgw+/vhjmz9Qu3Ztu4AIUVrwiGB711xzjQ33ffHFF/bE3ltvvdXcfvvtZubMmXYM8PLhaXFhZmx06NChZuLEiVZYO/j5Dz/80NSpU8dUqFDBGxW5jtsYh53LJNESc5zqlaclXNitvvnmm7YJk6u+aNOmjU1eZJKnGsjx/vvv2wm/qN0qnhryCRAsnTt3zq/kEKK0YI+IjFNOOcVWqHXr1s2KEAQxXhhCQUCYEggPFQWeREJH3bt3t8JGlA3cxliiRaSFPC3RAO8J1TZHHnmk9awgShAeVFuwMLgkNledwftFQXI1u2DyXIrq5UIVUocOHayoKcmDPJqwJx0RLNgl4UfuO54XhMbWrVutB4bQpfPuIW4IB/m9fcls2bLFeg+xS4S5KDv4N8ZhziESLTFHoiUarF+/3qxcudK62F3VDR4WRAsLw1FHHWXH/NUZBwIXPaXPo0aNKlbcEFqaNm2aFUMleZAAXNzfKXIH8qcQLXhVsEsX5nn77bft8+mnn26fAfutX7++92p/yIV57LHHzKBBg2yulihbkGPncu8kWkTKOONReCg8EAOEhk499VTTqVMnc+ihh9rxdevWmTVr1pjzzz/fejnAX51RGPRkIT+GstLCkiCFKA2IlUWLFlm7dCFKknE5YPWcc87JX4QQ0oSHDmRzlOUPGzbM5sY0adLEGxVljSgk40q0xBgmGkqeobg4tMgeeE8o/6Qhm5v0ETJ4WRo2bGhq1aplxwCR6aozkkGw0MiL/iz+aqIZM2aYr7/+2nslRMnB3ipVqmQuv/zyfOHsQkOtWrXKDwVhe4Q2/Qm3DgTL8OHDzbXXXlvgFPnXX3/dhidF2YE+PfDRRx/Z5zCQaIkxuGsdTEwiHChnJh+AnatbGBAyCxcutIm5iBcm/uTW/X5oi/7MM8/YRl7HHHOMN2psd1wES9DVQ4guwluIYvXiiCeEKjmVl/Bk1apVvdF9+VIkgWNThI7AJY87+3Vgt+PHj7ceFjyJDvK28MxQOSfKDi6sTW5TWEi0xBj/LkeiJTyWLVtmk239ITrEBpVDLPqImR/96Ef2fiFAku8VC8Pdd99ty1DpSMvC4R7kwgRZoUEOBFUhxK9//vOf2xAXwovfhXE1uYsPiApyV1q2bFmgUo2QESA4mjZtagUq7fqTxTTChFAlPYhoLOa3y8MOO8x6bFSKX7ZwooV7HxYH5RlswvuziBk0L2vdurVdYPwNokQ0oVU/ibDXX3+9NyJE+CCwSbBFNB8o10oImDRpkvW6kdvixG/QyNMSY1x4SF6WeOBv3S9EVCguOVwIh8JDIi1ceMh1VhXRJbl1vxBRwd+6X4iicKKFbt907A4DiZYYI09LfCAH4Morr5TAFJGDhnMSLaIk+Ksaw/K2SLTEGCpOQAth9KF3C9UXOmhORA0SyBUaEiUBO3F9qNz6EzQSLTHGZXBLtAghhAgCV+YeVo8eVQ/FmAsuuMD2YejRo4cZOXKkNyqiCofM0Y00KlB15t85ifghmxJB8+Mf/9h6WVhzWHsCB9Ei4knt2rURnIkBAwZ4IyKqfPXVV4m8L7i9X1F55C0uifnz53u/oYgbsikRBjVq1LD3+r777vNGgkWelhJw//33mzFjxtjWxf369TODBw+ORG4CLbfpVjp06FBz++23e6MiivA1c70wHOxY6Hng74CbDpwHQsiQSiXKq0vSyZbD737/+98r1yaGyKZEGHDg6vvvv2/XHNaewEG0iOLJEyyJli1bJqZPn+6NhMvOnTvzdzfjxo3zRkWU2bVr13474549eyZ2797t/URmyVtgEmvWrElMnDgx0aFDB7sL9v/bPFq1apXYsmWL93+IuCGbEkHTqFEje5+7du3qjQSLEnFLyIoVK2xdOu2sowA9PxxKxI0HtPKnJXrz5s29EWMmTJhgXnzxRbtrzjQVKlSw58mw8+bf4IwkdubslBzkRHEMgYgnsikRNO7ohrAScSVaSgAt8jnePU9hRqY5mP/sB4mW+MCET4iRZEXA3T5kyJBAjnondNCrVy8zb948c8cdd3ij+07rjVIypygdsikRJGFXD0m0lABuDgePIVoKO7o9DDjMzKFM/XjRvn17M2DAAO+VMe+8847NAQhqEiDf4YEHHjBjx461C92cOXPMxo0bvXdFHJFNiaBwnhb/GhQkEi0lgLM5mARwwXLCaRSQaIkv3K9rr73WXHLJJd6IMc8995z54x//GNhEwO/QtWtXM3r0aLN+/Xozf/587x0RR2RTIijcqfMSLRGGszlwg9I5EqhRZ1dTuXJle1z/zp077XiQSLTEm2OPPdYMHDiwQLhxxIgRZu7cud6r7IMAv+yyy8wNN9xgF5gvv/zSe0fEEdmUCAJ5WiLOnj17bKkfZ3NwWBQJuSSgEUMmlkuuiz8pNijIs3FItMSTJk2amPvuu897tS+5+ne/+12gbnV2Td26dbP5D0HkQIjsIpsS2UaiJeJs27bN5rOcfvrpNvmVXi2/+c1vTLly5ayH5YQTTrBemKCRpyX+sCvt2LFjga6SCxYsMA8//HCgO9RatWqZtm3b2jyEbFSciOCQTYlsI9EScTZs2GCWL19uT+mdPn26TXijVbUTM2eccUYoybkSLbkBJat9+vSxJ+06/vznP1tbC2qypwnYvffea377299GJmdLpI5sSmQTiZaIs2TJEvs8a9Ys8+tf/zpfILz77rtWzLRs2TKUzo8SLbkDvX+Y4I877jj7mpLV/v37W/sSIhVkUyJbSLREmN27d5s1a9aYSpUqmdtuu81UrVrVjrNbWbhwoY0f169f344FjURLbnHeeeeZW265xXu1r2KN3IRPPvnEGxGidMimRDaQaIkwVAkhWjp37lzA1UouCyXQ5LlUqVLFGw0WiZbcgntIuSj5CA7c+ePHjw9tchDxRjYlskFOlTxTSUN+BzFM/4OELARA3OBQKHJa6H3gFwaub0urVq1schuHiQWN32B0MNn/Q+IfcfSvv/7aG4kPNOjicE6aGDp4/cYbb3ivRBTYvn27efDBB03dunXt/EZe2yOPPGJ27Njh/UR0kE2JTOM8Lf4K1iDJqGg566yzrDghlgr0C3jppZfMP/7xj4ydOhoUhIAWL15swz81a9b0RvexatUqe+Po/Pjyyy/bJN2gkadlf3B7Dx8+3Ib14lqxwEJ45513FmjJTskqOVQifNz81qZNG+uF/fbbb61geeGFF8wVV1xh1q1b5/1kdJBNiUySc+EhXEeuuRGJqxdddJGttokbLgTUsGFDc+SRR3qj++C9vXv32gMUr7zyylBEQ1xFy9/+9jcrLDINqn/y5Mmx30Gyc8ed36VLF2/EWPH8xBNPqFFXGuAFuemmm6yXNB3eeustc+ONN5qmTZvaeY3vHh7Xhx56yKxdu9YMGzYsFM9rUcimok2mbDMock60sHi4hkJhVdZkAoQKbbDZRdGTxQ8Gtnr1atOpU6fQBENcRQu7vF27dnmvMgehSRKmzznnHG8kvnAg2V133WUuuOACb8SYUaNGmSlTpsTWgxQ2fF+++OKLtMKGNJok/Eh4JflMH0JEbNCww02bNnmj0UE2FV0yYZtBknOi5dNPPzVLly61i0ft2rW9UZFp4ipasgELyMqVK82FF17ojcSfatWq2QPv/C3ZWSzZ6YtwYENG6JENC/OcH0QB9wzvLD2coohsSmSCnBMtHJSF65HDBV2PAJF5JFr2wS5xxowZ5uKLL87Pas8VWrRoYW6++Wbv1b4EcDqbqmQ1HJisTzvtNNOsWTPbCdsPdoioIW8kyt5l2ZRIl5yqHgKasRECoIdJclhFZI7SiBYmVPJvyCchz+iee+4pkPmN25sDIEkkjNvkxVlQdAClmVauweJH/gT3zEHJ6p/+9KfQJoyiwI5oXjZkyBAbKuGgUT/uDK9nnnkmliEJckPoe8LJydicH0KebNiY99zBqlEkSjaFh3TmzJmmd+/e9ndKzq958sknba8ZcoVE0QR5LXPK00JCEa7GU0891SawZoLXX3/dThapPLiB33zzjfc3RRMm73nz5pm//vWvpUrg8yc3kxRcFJRus4hQuk0779mzZ+8nTvi3yeH54IMPvJHoQ0I0ocif/exn3khqcJ7UuHHj7NlSUYMWAuQi4Ll0YCsffvih9yo6kIxKgmrfvn1txSCn/PpBKBM6wf7iWJJeFOSxLFu2zIYoOW25JDDp4yWk23aQC0AUbOqzzz6zOYHt2rUzjz/+uHnzzTf3+/exEeZGrqs4MEFfS2erYRXYZPRfdf1L6Angj5umQ+vWre3Cnsrjsccei3zIgMmOCeSXv/ylee2117zR4vF7V4qb8OrUqWN3udwfEvEwchZ8Bx4xYttU9TgVHXW4v5Sbn3/++TafIFXwDvC5OQRz6NCh9nXUICRx66235pesMkGdcsop9s9RYtCgQVaYjB492r7mhGHuk4NkVTYh5FbkUm8hPiMijRw+mrmV9LMxVzqvB38OkrBtqnLlyubVV1+1HoJrrrnGloqTjOqHU/TxyrnfURRO0NfSOQLCSkvIqGihfwkXjCTc5DLhuFCYx6Y0j9LCCdHEyOm4W69ePW+0eEojWhwsFvTS4T4hXJJhwTn55JO9V6nz/PPPF3pteFx99dW2R0Rh7/EgtFAS+AyILXpQpAN/x9lnn22qV69un6Ma0iQ/jOooTu/t2bNnZPOY2H1xHfG2EpL0e1S4v3haEC/ZuM5M2h06dChgT+5B52ombdcQLvnB94LwTipgi88++6w96qOkXhYgjITLnkcYIaUo2NRRRx2V320cj6cf7guLLyHFuBOEbQZ1Ld13OvaihfAC7ieUHItwXHFemlQfpQUvATt9XOkc515SUhEt7ACd0k4WLYT1iMcfffTR3kjqXHbZZYVeGx6TJk2yzbkKe48HTbCKg3gtZz/hDuXLmC54ufB48RxFaAJGyKVx48ZW8CXnU0SN8uXL2xAENub3XOHd42R0+ppkA2x32rRphdoVYumqq66y7RgKe59S5VQEO5+JfidU5SA+SgMNN1mseATdfDNKNsViC8kVWeREIaoy5bUPk6BsM4hrmTOihYvEjoOFL7mDbDrkek5LqqQiWsDt6EiWdrAjJu+FyoKow5eYhDMWiKgv3pmA3KN+/frZe1TanXxYMEGze8TGnG1y3wihIFhy5b7x2QiF8ZnIGWPOiQNRsylXieXv38TGhNynTG1MygpBXMucES0seuzWcQ1n8kuQ6zktqZKqaCEcBa4BFv/vK6+8YjtmhmWEpYEvDIsfoTQnTt2DhZL3xowZY3f7jC1YsMD7P+MH9wYbpsvvH/7wh1Lv5MOC0A92xg4Stziwi8S+MpWgHzbML4SEgKo7bC0ORNGm8P76w4lcWzYmnFmHx06UnCCuZU6IFnIhCA0B8beiEtFotT548GDvVfThS865Iny5mZg4c4Rs/+IqdrKN32D85cvFwWIOTuiwyJOAV7VqVfvaDwu+EwS4kaNQekg4jd2tE6b+BwsjSeAkN7rzh/ync8cJfncWRaoBXDl6XBZGbBM7w8awTYQLiYJU1iR/BkJIzkvBo3v37pFrg18YbNCoxKDnif+7SMk3IbAoElWbYmOJvWAr/I60McB2CstXY/1wtsIjrE1JVNex0lzLVHGiJaxk+oyIFlQdORmU0BW2k2KxY9HDyEjEjAvcdMqAOemZgx8RKg888ICtkiAOzfth4Z8onQApCWSac4+2bNliJ1c+E8ctJMNkwJeS3TKf8y9/+YsNt6lnQjDMnTvX9O/f31YDRDnxtjCoQEMEUxHD3ECV169+9av9wkLYEp+NBQAbw9Y2btxovX7JOVdOQPOzYUN4hUo/QizJn4kDFckdiCJRtSmuFzk93HsSTtl8YAPcbz9OJGArPMiPI6RdmE04cZNJUROHdayk1zIdYu9pIRGNxkTUhpMEVNjFcSW3GJo7AToOMOEyCdFQCtcan40+FCRs8uVnVxUWqYoWPgMVHoTzaCr105/+dL97xk6Xfi5Mbogc4B5Smulc4lED26JPEB4WbNJf0h034pZ4mwz25HZhEydOtJVZhYWMETN33313vo3xPGLECPu9wzPjB48Z97hz587eSDiQH8Bn4vyx5ORZ8ufY4LhkyCgRZZtiPsJeuO9PPfWU9WYnL4gIhgoVKhS4//yZ9YS5Klnk8h72kklPaxzWsZJcy3SJbckzCxuuXEqb6bAKhBpIwu3WrZtdPOIOzcY4MBFR5nDChZ4nLiQWBqmKFvI+2AXTp6FPnz6FTl7kuzD58jn90HWWnUvyBBE27MD4suLpo+R+6tSp9jNyr8JyH6eKS5IEvHpxSLwtDKodqFRA6B4ob4JkQU5J93vvnH2mWn6cTXC5c8ggFW7OvvwPPEzYXzp9g7JB1G2KcAZzCw+u7YF+vwkTJuwXksHOWKDx0omSX8t0iK2npajcAhZ5Ll7cwbtCL4MofpZURQuwYyhqt8UEwESXDAsK9zedCYIETZcMnCkI1yXboHvEKaeFXTw7OHZzdJdFWMYVRGRxiZ7cNz4r9ujAtliEXImnCwvxSCc0RHIwlRXpNNdiB4vQL8zO3KOwU+HDJC42RcVZUYLKeTmwGT+IWwQkcxO4sBCPuGxYMmGbfoq7lv4wl7tG7rqRX1bcpjQnEnFzFbKw6QfSpUsXb2TfbosbzZefyqawSEW08HPE4nETh7XbIoudRFlREO4N/T7YyRN6CFps0VogOSSTKoQeceXTe4KJsDSQ3MoixOQJXAeEDH9XsuevNLAgcDDg8ccf743kPnGwKYQelUx45EorqFhcmYv9YWzCQuRxYC+ZTD7NJpmyzZJeSwQg94ZrhNhz3qvkYzcOhERLjGDXQuiBMBjxwjA7NZZWtPAzVD2x803ny4EHRq7YzPP3v//dHqUQRndSqnvwmh522GHeSOoQWiR02r59e+ttKQ3sAMkXIa/FLULAIsTv6HbTomRE3aZYZF1TzVQ8QIgxhFhynhPCl7SFZA+53wtT3CMdr14YlPZaIia5RnPmzLF5jVxDkncJKxUXWZBoiQHcYEJF7B454XXYsGEFDhsLA3+52YFEC5VPnDW0evVqW+2EyEpXzeOh0eKRWUiSxJ3L5BF0kiSTHYsbLb5Lc4yEg0R1dmyPPvqoTUynwSQeyNIKFnbNJLzz+f3hImD3yOLkFzKiaKJqU3hG6JjOMx1iSWZOvt8lAVFBBeQdd9zhjezDdWanIjI5t8gl55bkkSyEokg615KwGnmLzOd8t4q6bslItMQAXNVUoxAaImY9cOBAM3LkyBJ5OLJFSTwteETY+RISouwtXcHC31dYrotInbCTJPFiEEKgKWQquUZMYNgF5bTsUDlxu7SChQmTfAs8LMkhDN5jcUqlxX5ZJco2RYUfOUtUjlGunEoIh0WaRRdPTvICSwGI8xjkOqleSxdWo2iG3klQmuuWUwcm5jpMxsTVUffEAdlNhEVJRAtxbI4op1V3aXZaeFIONNH5k95EeoSdJEmlCyf9rlmzxp6W7ffelRTKmQk70oCRgxARLqWFxef666/P3yUyqboTzw9UySYKJ+o2hajlnhK2Si4ZLwmEEJcsWVIgIRdbccmjCCaISz5LOqR6LdlkIHbIBXKirzTXrUx5WtyuKe4wEeD25DRj/xk+QeI/RTvT5eWcT4QKJzbsR276zIHQZDdKj4mg26nj/manRb8hWnwT6kwlNJQJEP+4uP1ubSZVNwnzZ5dn4G89IPYn120KwTJu3DjbasMP85/Lw3DeAk45pg9VNoj7Osa8Tud6NhkON7eTF+NvQVAYTrSEVlWbZ2xZJ2/iSbRr1472sQUejPFeVJk2bVrioosuSuQZqDeyD/d5wvz9N2/enH8dp06d6o1mjjzjTTRq1CiRp8Dta54vvPDC/Ncidfbu3ZuYPHlyomLFiom8RTvx7bffeu9kn61btyb69u1r/21nP/wO/E5BM2nSpPzfwf/w2537majPFWGT6zZ1oDWEx7333uv9VML+mbEbb7wxkSdmvNHMcKDfIW62yTXyXzOuE9eLz8L3rTiaNGlif/aqq67yRoIlENESV9wXgAXcjzPe9u3bJ7Zv3+6NBsv333+f/6UZNWqUN5pZ+Nzu3/AvJCI9Zs+enTjxxBMTl1xySeLjjz/2RrMDCwf2+tJLLyU6depUYGHhwetk+xbxQzYlgqJ+/fr2Pt90003eSLAcxH/yfgFRCMOHD7eVQ08//XSBJNa8xdseNkaL5AcffDC0ZlLkl5B0hyvYJd6JaENVx3XXXZd//EW6sXdc1eR8kCQOPOPeJcaPG5jzfyhBPhAkmRNOUJ5SfJFNiSChrJpcSdYc1p7AsdJFFEreFzQxd+5c79X/M3bsWLubmDVrljcSDng/uIV9+vTxRkSU2bVrV6JHjx75O9IoPMIKDYnMIJsSQVOtWjV7n4cMGeKNBIuqh4qgQYMG1tPCaaJk5ed9Ec2iRYvsboaj3cmODxOOGAD6IYhow26VZlg8okKe8LZ9fFKp+BHhI5sSYeASccM6GFThoWLAVcpBXePHjzeLFy+2WfGU9F1++eWhlXw5unbtakNX/C40khPRhgMCXY+DKEAJP4tM2HYsUkc2JYKG9hlUbLHmsPYEjURLjOnfv79tHkVujetrIYQQQmQLeu8QdWDNYe0JGoWHYoxLdOOcDyGEECKbbNu2zQoWoBAkDCRaYgxHkMP27dvtsxBCCJEttm7d6v3JpH0sTKpItMSYSpUq2WeJFiGEENnGdQKm/b9bf4JGoiXGOE8LB2c5l50QQgiRDZynJSwvC0i0xBi/0pW3RQghRDZxoqVatWr2OQwkWmKMX7QoGVcIIUQ2ceEheVpESrjwEMjTIoqDECI7pccff9w8/PDD3qgQqUPHDNr7T5kyxdx11122r5XIXRQeEmlBMpQre+YMIhEfOEKfzqFDhw7NP+Mlm0yePNnUq1fPNklcuHBhfldLkTsEbVMLFiwwNWvWtGe0zZs3T525ywCbN2+2z9z3sFBzuZjTokULO3mwe+7Zs6c3KkThsBO+7bbbbEx60KBB3qgQ6TF48GAbOkDAsJkSuckxxxxje7XMnDnTtG3b1hsNFnlaYk6dOnXs80cffWSfhRBCiExD634EC6R7kng6SLTEHCdaNm3aZJ9FtMHTcfPNN5saNWrYuPDy5cu9d4RIDdmUCAK3MS5fvrypXr26/XMYSLTEHKd45WmJB7jOR44caR599FFz7rnnmlq1annvFGTJkiWmcuXK9rTckjy6d++uJMgyimxKBIHbGLuNclhItMQceVriB6fyzpkzx5x99tnmiCOO8EYL0qxZM1uVQcpZSR6jR49WLkEZRjYlso3bGEu0iLRQTkv8oGxw2bJlpnnz5nZHK0S6yKZEtpGnRWSMBg0a2OcNGzbYZxFt3n77bbsbDvvLL3IH2ZTINm59adiwoX0OC4mWHMAZ0fr16+2ziC7OjX/mmWcWaA6YjPIPREmRTYkgcKLFbZLDQqIlB5CnJT7gxl+8eLFp2bKlOeSQQ7zR/VH+gSgpsikRBKwv5cqVU3hIpI9ES3xYtWqVXVgqVqxou9R+99133jvBQCfcnTt32gc7dBF/wrYp7MjZlDot5yZ79uyx3XDD9rKAREsO4MJDEi3Rh+MWduzYYVauXGkuvfRSc+ihh3rvZBe6JuPy55DNqVOn2lbvhx9+uB3jPRFfwrKptWvXmsaNG1s7wp6wK+wLm0I8idwhKqEhOCiBH1DEHmLVJ510khpLCSGEyCgzZswwv/jFL8yIESNM7969vdFwkKclR2jXrp1ZsWJFIAelCSGEKDuQxA1t2rSxz2Ei0ZIjtG7d2j474xJCCCEyAesKnnxOig8biZYcgU6YINEihBAikyxdujR/Yxw2Ei05Agq4fv361riEEEKITLBu3Trz+eef52+Mw0aiJYegT8PChQu9V0IIIUR6LFq0yD5zGGcUkGjJIdq2bWu74r733nveiBBCCJE6tEQ466yzTN26db2RcJFoySHo0UDPBFp6CyGEEOmCaOnYsaP3KnwkWnKMq6++2sydO9d7JYQQQqQGgqVKlSqmV69e3kj4qLmcEEIIIWKBPC1CCCGEiAUSLUIIIYSIBRItQgghhIgFEi1CCCGEiAUSLUIIIYSIBRItQgghhIgFEi1CCCGEiAUSLUIIIYSIBRItQgghhIgFEi1CCCGEiAUSLUIIIYSIBRItQgghhIgFEi1CCCGEiAHG/B8zPyiTa81czwAAAABJRU5ErkJggg==;" parent="WIyWlLk6GJQsqaUBKTNV-1" vertex="1">
          <mxGeometry x="344.75" y="265" width="450.51" height="110" as="geometry" />
        </mxCell>
        <mxCell id="wd7movWwi8j4sVm-7Usf-29" value="" style="shape=image;verticalLabelPosition=bottom;labelBackgroundColor=default;verticalAlign=top;aspect=fixed;imageAspect=0;image=data:image/png,iVBORw0KGgoAAAANSUhEUgAAAh8AAACMCAYAAADcMMsVAAAAAXNSR0IArs4c6QAAAARnQU1BAACxjwv8YQUAAAAJcEhZcwAADsMAAA7DAcdvqGQAACNESURBVHhe7Z0JuFVVFcc3mmCgWYCpTJIIIkgQIIOIgkA4EArlkKKUiZAKQSVqol8mIRqKmKImIiJDoAGWjYCAICDzoIgiSAwOpAWIxBDe3m9z9vvOuzzgjueec97/933H8+6+z8e956yz93+vtfba5RJFGCGEEEKIgDjGOwshhBBCBILEhxBCCCECReJDCCGEEIEi8SGEEEKIQJH4EEIIIUSgSHwIIYQQIlAkPoQQQggRKBIfQgghhAgUiQ8hhBBCBIrEhxBCCCECReJDCCGEEIEi8SGEEEKIQJH4EEIIIUSgSHwIIYQQIlAkPoQQQggRKBIfQgghhAgUiQ8hhBBCBIrEhxBCCCECReKjDNC9e3fTq1cv75UQQgiRPkuWLDHlypUzW7du9VoyR+KjDDB16lTTtGlT75UQQgiRPs2bNzff/OY3zbRp07yWzJH4iDkID7jsssvsWQghhMgUBMiECRO8V5kj8RFzUKiNGjUytWrV8lqEEEKIzGAiO3/+fLNo0SKvJTMkPmLO9OnTTZs2bbxXQgghROa48WT27Nn2nCkSHzEG4/jwww9NixYtvBYhhBAic0455RTrSX/ttde8lsyQ+IgxTpmee+659iyEEEJkCxPaOXPmeK8yQ+IjxmAcFStWNOecc47XIoQQQmQH4mPXrl1ZhV4kPmIMhqGQixBCiFzivOkSH+IQ3nzzTXv+xje+Yc8i/Hz++efm6aeftmchwsKBAwfMqFGjzLZt27wWUdY544wz7NmNM5kg8RFTVq9ebc8SH9GB5OC9e/faUJkQYWHnzp3m448/NieeeKLXIso6JJwee+yxEh/iUJxROIUqws/7779vzj77bFu+GDZu3GhuvvlmU6VKFVO7dm0zaNAg869//cu+FzT79u0zq1atMn379jULFizwWkVZYPPmzaZGjRrmy1/+sn2NZ27EiBGmfv365itf+Yq56qqrzLJly0wikbDvi7IBE9t33nnH9g2ZIPERUxR2iRZ03G+99VZxMbi3337bPPnkk+a+++4zn376qZk3b57ZtGmT6datm33gg+K///2v6dOnj7n00kttfJck5i+++MJ7V5QFsMszzzzT/ozwGDJkiGnZsqVZs2aN9YhQ96FLly5m0qRJEiBlCDe2ZOr9kPiIKQq7RAtc25999pmpVq2ajbHPmDHD9OvXz5x22mn2fWaed9xxh/n3v/9tRo8enfFsI12Y7T711FP283Tu3Nkcc4y6jLIEdvbPf/6zuB954403TLt27UyrVq2sLWAfN910k7UN7AQviSgbZJv3oZ4khuzevdu68CtUqFA8eIlwQwdftWpVG1dnCRsFfO666y4rShwMAMwyV65caYWKEPnmk08+sWdsE7A9Qm8rVqywr6FSpUqmffv21ism8VF2IBQMeMYyQeIjhji3vPZzKQy4nh944AF7/cnfmDJlim2nw+7evbuNlb/++uu2zcEDzG6RcPzxx5vTTz/d/uyHv0WSlxCZQt9wwQUX2FwNbPE///mPDa2Rw8FgMmDAAPvawSQGWyxfvrx9zWz3S1/6kv3Zj+yy7FGzZk17Xrt2rT2ni8RHDHHiwxmHCBZEAl6LV155xVx44YWmYcOGVmy8++67No+jQYMG5tVXX/V++1DXNh6rYcOGmbFjx9pBwrF9+3azfv16c9ZZZ5kTTjjBaxUidbCdWbNmmdtuu800bdrUColnnnnGXH755Wb48OH2PXKLHCQZY78Ofg83e5MmTbyWg0tx6XPIAyFsKMoGbnKbaQ6axEcMcUpUno/CwqoQBAUzSWaOV155pQ2JffDBB6Zx48bebx3q2j4c7CJJSIYEUASKEJlAkujChQvt1ugkMv/whz+03g28HHXr1jWnnnqq/T1Ce9hmaV44P4RaCBOSo+Rc8SL+uMmtxIcoRp6PwsOqADp4ZoKIDTp6PCLLly+37zdq1MieIdm1XRpbt241zz33nHnwwQftctzDQZ0QBgH+rVSP5BCQiDespCI0iGhABJNnhFcNIdK6detibxt2y3t+71sy//vf/2wBMrZZZ8kt9iTKBv7JbSYCROIjhkh8FJ4tW7ZYoUGnTuiFThlhQFJesns62bWdDCtcHnvsMXPPPffYeP2RwCPC7zK4pHq4LbJF/OF+45FDzOLlcHa4bt06u3T2/PPPLxYQ9CPY5eEEBcLjhRdeMHXq1LG5IqXlgoj4wmqn6tWr258lPoTFGYLCLoVjyZIlVnjg0mY1ADCTZKlihw4disMmR3Nt40F5+OGHzfXXX2+aNWvmtQqRGdSMwdPVtWtX6+UABAleD7xx5ISAy+OoV6+efZ0M/8+LL75ojjvuONOzZ08JjzJKNkmnEh8xg8GMvAI4Wg6ByA8kkC5dutRcd911JRLz8ISwKsCf70H8/aSTTirVtY3wIAnwBz/4QYmdiWfOnGlXKQiRLiQ2UyX3hhtuKBbALuRy3nnnWVsElnhjx1//+tftaz8Ij5deesmuysLGXe0XvCd48UTZgfpDkMkSa4mPmIGL3lG5cmXvJxEk7NFCcuhFF11UPCOkI6eDZ5dhYu6IDkguqe5AeIwZM8Z6PHCPO3B14ylxpa6DxAlbBisGIBE9SAzFw0GoxLFhwwYbcqGKKauwuLcMJv6S6g7eYxXX1772NXPFFVeUsNuPPvpI+xKVMVzYjjBeukh8xAz/jFjiozCwpBZ3tD8xdM+ePTbsgqig8z/llFNsR44QSa5Ci8B4/PHH7XJIVg/QwbuDv8vfYdYZFPfff7/9t9lGm9ktpbSZ7V588cXWjS+iAeIR7xvVSV0oEBAN2BMCmZwi7jV1Z1wIxg/ihSJjnTp1sjbgt01yjU4++WTvN0VZwIkP+qR0KVfUAWoKEyOYuZBTQMdA3FaElx07dtgOu3///toxVIQGRMgjjzxiQzP+xGghkhk3bpz1zpL74a8PkwryfMQMF3aR1yP8+EuqCxEWUq07I4TCLqIYF3YhJivCjb+kuhBhIZW6M0KAEx/sdE34Lh0kPmKGPB/RgfoaEh8ibJB4Sk6HEEfD1fmAdL0fEh8xg2V0IM9H+KEOi0IuImyQDK2Qi0gF+i+3os+NPaki8REzXNaxxIcQQoh845Zjp1t7SKtdYkb79u3N7NmzzS233GKeeOIJr1WEETaccwXhwgIzGcX6o4tsSgQNhejwejDeMO6kDOJDxId69eohJhN333231yLCypAhQ+y9CtMxbtw479OJKCKbEkFTq1Yte58HDx7staSGPB8ZwN4I7NlBwaV27dqZ8ePHh2Y9PGW6KSY0bNgw87Of/cxrFWHk5ZdftmvkuV+O3r17H1J0LFNYd//ee++Z/fv3m5UrV5aofns4KOVOgTN/ESoRHWRTImgoRkdhRcYbxp2UsRJEpE3Rw5cYOHBgYsCAAYm9e/d6rYVl586dxbONZ5991msVYQUbGjp0aPE94+jWrVti27Zt3m/klt27dyc2bNiQmDJlSqJogEpUrly5xL/NUbdu3UTRoOL9HyJqyKZE0DRu3Nje5xtvvNFrSQ0lnGYIy4rYqwPVF5Z4JnuKOJRwGn7IEmdWePnll3stxkydOtWMHj3alljPNSSGMQMuGozM2LFjbT0HvHaUTXfgzWPjOhFNZFMiaNxWD+kmnEp8ZAhuJh605s2bey2Fx19fX+IjGrCscdCgQSW21B8xYoTdQyPfEKK79tprzaxZs8xvfvOb4mW/c+fO1a65EUY2JYIk09UuEh8ZkEgkzBtvvGG3Rvc/4IXGP7Nxa69F+GnWrJkZMmRIcUeNB+vee+81GzdutK/zDbF44rWTJk2y9jxjxgy7y6mILrIpERTO85GuZ03iIwN27txpk62+9a1vhcrDIPERTdgRFDc5iYIOkpqZObILbhDwGS655BLz/PPP2+q4f//737UxYYSRTYmgqFChgj1LfAQAs4h33nnHNGzY0Bx77LFm7969ZuLEibZUdosWLczq1au93wwWiY/owkzx9ttvtyXXHSNHjrTxejxtQcGW6gMGDDALFiww27Zt81pFFJFNiSCQ5yNAyPfYs2ePadSokV1qRnGV1q1b2+VkixcvNqtWrfJ+M1j8swqJj+hRu3Zt86tf/cqcdtppXouxsfulS5d6r/IPs9Xvf//7pmLFitaWRbSRTYl8I/EREAzwCxcutPkeVapUMdOmTTO9evWyD/n27dttjLVOnTrebweLPB/Rh1niT37yE+/VwW33Bw8ebD7++GOvJf9QsbBr1652hQJePRFtZFMin0h8BAQZvcuXL7e7+Y0aNcp07tzZCg4nSlq2bFmwJFSJj+jDfbv55pvNlVde6bUcLBw1ZsyYtB/ubPjRj35kV0i4eK6ILrIpkU8kPgKCWQPJpn/7299M27Zti7cUJpaJS5H17aj8QiDxEQ9IYr7vvvusd83x61//2vz5z3/2XgmRHrIpkS8kPgLirbfesgmnlFfHnenYsGGDXX7Lxm4koRYCiY/4UL9+fTNw4MDipZKUy37ggQfM22+/bV8LkS6yKZEPJD4CYN++fWbFihVWYPTo0aPEAL9o0SKbgFqvXj2vJXgkPuIDSXpUjezZs6fXYqy4Jak5qKWSIl7IpkQ+COVSW3IgqHiH0fuPTp062S14o8Ynn3xi8z26dOlSYiM5ZhC0k+/x1a9+tWCV/Pw3v1Del7DBrI5y01GsrkjlwLvvvttcdtllXsvBpZITJkwIdKmkODJsY//UU0+ZVq1a2f4NDwP3zV9xOCzIpkSucZ6PdGu45FV88DAiMljqBSRivvLKK7bYzMknn2zbogTl1FmiRkl1OhkHnQzLa6n7wffDQ1II5PkoCbM5ZnUfffSR+eKLL7zWaHHqqafaWg3+JGZi9UGUyhZHB+Fx//33mzPOOMPu9UQHPHnyZCt6L730UlvbImzIpkQuCW3YBZeMM/IbbrjBXHzxxeaYY6IZ7XGhleTVLHRAXHg2UKKiH3srFIIoig/E3B133JEXwYYQpKBS1Dn//PPNrbfe6r06mPQ8fPjwQJdKxg3sDbvLtt4Fyeff/va37cEzR99GscEHH3zQdspDhw4NZWEt2VR4yZVtBkVoxQczgbVr19qfWR0S5XAAVfooUZwsPpo0aWLefPNN29FQRrhQRFF8UKxtx44dabvsjgZCEK8bIbKowzPTu3dvK94dLJV87LHH0n7gxUGwN+wO+8sGPBusImHw9nPmmWda22ODNWwxbMimwkuubDMoQis+3BLU8847r6DJmGWBKIqPfEARIzay6t69e2S9bMmQO3XnnXfavCLHb3/7W/PSSy95r0Qh2LVrl5k9e7bZsmWL13IQwrJsNU8+WFCbuaWLbErkgtCKD7cEFQP3l/gVuUfi4yAID/bYCdOmf7ng7LPPNv379y+xVPLRRx/VUskCQoiF3A48Hck4b16Yn0XZlMiW0G4sR54EBs0Wz+XLl/daRT5IR3yw+uMf//iH6devn3W/Ji+1e/LJJ20dEzbQixLMMkkwJRQWR773ve+Zvn37eq8OLpUkVh/GpZLYI/aDLVEJmNLafjZv3mxXvrHTarodV1hg51gKdSXneblwc926de0AH2bCYlPkOpDn8NBDD9ncQGoq+aHMAWLv97//vVbmHIUgr2UoPR/ErebPn28fQBI1cwEDy0UXXWTdmukerL7BExN26JSfffbZtJfq+UMMR1rd8emnn9qNnhgQcLMSl16/fr337kGIN86dO9csWbLEawk/GD+Cij0kssktYrNASk+HUXghKhGMDHqOZ555xnYmYWPSpEl22ektt9xi7wviw5/bg43u3r3bttNXxAkXbqavov9LBQYBnjnCHiSxB0VYbIokXVYSkmzJikhWD/nBdih3QJgrKvkQhSLIa+lER7oh7ryKD1eKnJK+yUmamcIysVdffdU+qOke1B1hSVyYQbEy67jpppvMsGHD7OtU8Xs7jqRC2RCP8vB4P66//nqbEMemeH6YCaGKnTs2CrBUkMEu22Xczz//vK1gy+6fYRwUmWX7l0oyuIfR03PddddZgfGXv/zF2hEJwP5Nxfj8CBQ6yTCHJjKBRFQ8vmzoRm2NVNi0aZPNwWAPlunTp3utwRAGm7rnnnvsoEjNFKCSNP22o2nTplaosqWF6hgdmSCvpXum032G8yo+Vq9ebQc2kk1POukkrzValOZBSfdIB0JTbM9fs2ZNe04nVJWq+HBQEK1Nmzb2Z7wtfvjcCBJcc9lC6A3Bk3xdOFjy9/TTT9vttkt7nxlZKrtgbt261dZhwdayhXwRarZw/U844QSvNVywqgohzmz13nvvNZUqVfLeCRfcQyYfhF2xseQZPa59EjNJfsw12A32k2xTHNgbdof9lfY+9ordZgK2SKiJfxsxnCrsCYXt8Uw2aNDAaw2OMNgUs2eeO7xFeLn9s3LuC7N1Bs6oh/CDsM2grqX7u6ERH3QyuBCZ8fBARRW/5yTTI12Y+TAL8u9CmQrpig9AgEByLQJihHRGufBYcf8J9ZR2bXAHknOC+72091n6d7RdMF24haqNuZhB0/mzdPqnP/1pKGdY1GK466677M/szZGcbxA2mPkzkOEJYHWIg/uGF5P7RmeYa7Ab7Kc0u8LesDvsr7T3sddM+i2+E8LjmmuuMVdddVVa34vrhNeTz1RaAms+CZNNMfgiRrkHfs/vzp07bSXpdu3aeS3RJSjbDOJahk58MJjh+WDGw8wmV5SFnI9MyUR81KhRw579gwKzUWKB5IRw3cIOLm46a2ZtcYd7Q8VgBu10Z9aFgoQ07IzP7p990bmy/D4u942BYfLkybazZ/+UXAjhIAibTbFKrWrVqlasun6Ma0vuAoNlWL18YSSIaxk68fHuu+/aZFPcPrlU0XHP+ciGTMQHnim/W47rhBeBVQj5cIXnA4QSK3OSxaZzX/Kg8QDSNn78eO//ih7cG/bgYC8O9udId2ZdKHDr4kVD+Ls9drA3wmQXXnihfR0HyDkiQZvKoVERHmG0KeyFEBRhAWcvrBzimuZq4UJZIYhrGSrxQaILIRfA21Ca6xo3EEuA3EDRp0+fQDO8M4WHdc6cOeY73/mO/dx8v4kTJ6aUl5Bv/Defe5AKuP8YpPl9vtuyZcuscClt9sPqD5LQ3D2j2msYILmKz5588MDhveHgZ9pIgowqDG7swUEy4G233RaZAY7nn5ACsy/sjGflxRdftPUxkr8DfQB9gbMx+gj6irBDbtsLL7xgVxf4Z5MIruQlxmEijDbFZ6BPoh/CXhg0SZCnhD024Yc+yNkKR6EmF3yOMI5h6VzLTHHiI90QdV7EB7MaXKoUFitNXTGIYegYihskqM/Ads9h72h4WPEM/O53v7OfnVkD34PCPKl6G/KFv+NI9bMwI2V1CNefjhJVzH1INkzuGS5ZVie4e8aGWmERIHGHok8MbIi/MCeYHg6XO4S3g+eHzi/ZI8qzf+ONN9ptDLAxYt+1a9c2HTp0OGTZs5u8hKHDJ2zBc8H9Sf5OLNsOa7G7sNoUYTo83KyUZCxhtdS11157yOej3/V7wRlzevToYfulZJxIyaU48U+gSQ4NI6ley2wIjeeDRBbWiFM7gmTG0tQVF+CXv/ylzdoFziNGjLAXB1UWVuhk3EZorlorYRw6TGYPFBsqJJmIDzKiUaxc+9GjR5uOHTuWakSTJ0+2D9hZZ51lX3PP8Dgw2wurx4plsgxgHAwCdFBRJGoJpqXhZkVs9kdnVdpWCzz7TEqcjeEt4bmi88T+/GB//D5LCVNdypoPeM7Gjh1rvvvd7x5Sz4Nlxoh518+FiTDbFGOGsxeuLSv/ShOqTJZ+/vOfey0HE8XHjRtn/vCHPxwiVnmP5z+Xnk9ng/xd/t0wksq1zBbn9S+Y+HDuUpbUstESEGsn2bRXr152AHCQ3Hj11VeXMBBi8nQyYU4IZbaPYVPAxZ85zLI4ZmiEY9Kpy5FrMhEfuOT47BwDBw4s1TB50Jk5kOjrh3vGTJaVOWGC2Q0PXZ06dWz4j4PBDqGVy5lPELhkQAo+YXdhr5Z5OLAv8osoAEdFzdImJYDA9XvTnH2yfDWMIpeCYExG6AP4Tv6DTp/N2tyKsrAQBZtiUoe3jI3vyOcqDewEL5nfLrAVZvn01eIgqVzLbCi454PZB7MQ5wLzH3hC6EQczJgxfDfDAYyF2XeYE0L5DgzO5Ek4NRkmMhEfgFv4SLMfd2+ScUmc2TzoDEjVqlXL6bp9Zjel2SFHlHI+uIePP/649S4NGTIkLx1HkBwtodHdN1d7Bpi0EBKkGBJ9jN/VnU3IBXvD7rC/bGBJLd7eZDtzB7ktYapxFBWbYqJwpM93OM8XtkJdGfomcOEWjqhMPHJlm46jXUv/M+WukbtuhOSSvUjJhCrhNBPIEsfzwUUIK+RGTJkyxcZH/eKDUAxGz2fP5SCaLumKDzpHYqYo4kLNfihilnw9xcF7Q6iBsANVaCn8RGcQFMweyWPYv3+/15I5uPgpMMYGZul2UIQtEL6IFnCDDjP3tm3bZhxywd6wu1wU0YsKUbEpVkpS3A9hl87nQ4ji5SQE5ia2CFkmR/wtKulGgVzaZirXkmdq6tSptrYIniMECOMCz14qIZpIiw+UFfEo8j7CGB89HIRY6Ajx7FCSm+WphSQd8UFH5IoZZSs8EF4ityBof/GLX9hQV9DJgMRwyf8hPHrcccd5rZlBrg3VGEliPlqxuGSYkZE8+MQTT5TwkrowIB2lSJ0o2BQhXLbloPAcM/Z0YGII/jwQYBBllYfzhjgYd/yr9450hHEly9FI51qyypF+3HmxiU7wM989+bolE1nxQUfC/gc8DP4OJsysWrXK5hDQmVIFk/0Ygp5FlIbfe1Ca+KDDpjIe52nTpllPTi6uuQaB3IKnYPDgwdYTWIhkQOyDg2Xk6UIHTRyeAYDVFG5lS7rCg79DmIYZuj8MAwwmEIUCa2EhrDbFfj/MylktiDiiMCWrm9IVHvxtQkl4dZK9YczisaHkiS19H+F/JmJHOwqd2JwK2VxLhAffk5xLF5o+3HVLJpLigw6GhCc8HskdTJjBHYY7i2x2svfx2qAUSeQqJEfzfLD6Axc2q41I7Mu28z5cLojInEInAzJIUfaZJfKZiEpc6kwo8HaQJEq4JF3hAWyqiPAoLUeHjpLP5s8jE4cnzDbFwEU/QgkDJm/UfklXeODBILGX0EHyQMkYgx3GubikI9NryTUiXMX/QwjetaV63TJd7YLaKRiPPPJIomgW471KJIouXKJopuS9ig5vvvlmouiBThQpzkSRIPFag2fmzJmsJbXHnDlzvNbs4b507tw5MW/ePK/lINy7olltiXsoMqdo4E4MHTo0ceKJJybGjx8fuC1t27YtUTTgW/sZNWqU1xo848aNK2Fru3fvTkybNq345969e9vfEUcn7jZF31QkrKxdOJYvX17cJwXVR2GP2KX/c0QF17/7n6l0rlvHjh3t/b3gggu8ltQomOeDWC4hAL/bH9WW7XbohaBWrVo2mYlQBlsXFwp/Vj2rBHIFswk8U7jh/JAkzFJqvr/IjqJnsTgZsBBlros6GVugCdc1M+NMQi65wGXb+z2h2LLzcvCz83yQa4WXRZRO3G2Ke8/3ojqrPyRC+MHlKTCm8J05sJd8EeYSEUeD+wT+xR6ubydvhJDWkXBhl7Q9kVaCBAwKi386+WjcuHHeFWo2LF68OFHUKSZWrlzptRwEtYvqLfTn37JlS/G1nDhxoteaG/hefD83Iz2cN0RkxuzZsxOnn356olevXoldu3Z5rflnx44d1gNZuXLlYtsp1AwOW3KfIflwdubs0N8mSifONuX6XPf3/Yf/33JjDX0VfVYuOdxnCPs4lkxpXhu8SXwXzkejWbNm9nevueYaryU1Chp2iRrOkP3uKXBGyE1Yt26d1xo8Bw4cKH4ARo4c6bXmDn/Hz6HOPzesWbMm0bJlS3vwc77Zvn17YtasWYlbb721xADhjmT7FtFDNiWComHDhvYe//jHP/ZaUqMc/yn6H0UK/PGPf7Srckgw9a/Bxs1HvXwqGY4aNaqgRYXIZifBi6IyrnyyCC/cqyLhahYsWGAz6rMt+kSi8XvvvVeilsL69evtv0P2+/Lly49YNKhIXNpaDFFZeSYORTYlgoRyDdgD4w3jTspYCSJSYsOGDYmXX375kKStGTNm2ISuQibpOZxn4vbbb/daRFhxyYDcr7Acye5XES1kUyJoqlevbu/zQw895LWkRkGX2kYNktwo2vLwww/bojVF189upT18+HC7LJA11oXGbXi3fft2exbhhX1BSAYME9lUDRWFRzYlgsYlnKa7h5HCLmmCC5Lwy8iRI83MmTOtK5FsazbPC8MDxg67zz33nN28i30lRHhhLX3RjNB7FQ7YT6KQWwSI7JBNiaChUi42x3jDuJMqEh8xg/LJVDBka/zp06d7rUIIIUTuobI2BTcZbxh3UkVhl5jh1rcTFhJCCCHyBXVUEB7AYod0kPiIGWyPD2zoJYQQQuSLDz74wPvJmGrVqnk/pYbER8yoXLmyPUt8CCGEyCfs/wLkO7qxJ1UkPmKG83ywiZxzhwkhhBC5xnk+0vV6gMRHzPCrT3k/hBBC5AsnPqpXr27P6SDxETP84kNJp0IIIfKFC7vI8yGKwy4gz4c4EqyyZ2fQCRMmmDvvvNPWiBAiW7CjefPm2fpHRyq7LqKPwi6iGBJ/3HJb9l4Q0YAcnauvvtr0798/kCJRbJPNltlU5507d64q4saQoG0KIXvJJZeYnj17msWLF5v58+d774i4smXLFnumL0kXiY8Y4jZw2rRpkz2L8MNmhGy+9eijj5qKFSt6rfmjTZs2ZuPGjWbw4MEZzVpE+AnapqpUqWL++te/msmTJ5sWLVp4rSLObN682Z4z2TRQ4iOGOENwhiGEEELkErxpFBmD+vXr23M6SHzEEHk+ogXehzp16phy5crZfYOEyBbZlMg3bnKLV61mzZr253SQ+IghToXK8xENBg0aZCZOnGjat29vGjdu7LWWhJVLV1xxhR1MUjmaNGmiZL8yjGxK5Bs3uc0k5AISHzFEno9owaoTVgc0atTosPsjsIpp2rRp9ndTOVasWJFxpyCiDzYgmxL5JJt8D5D4iCHOGOT5iAasNGGgIEmvQoUKXqsQmSObEvlGng9RKuecc449v//++/Yswsu6devMhx9+aJo3b+61CJEdsimRb9zYgnctEyQ+YooziA0bNtizCCe4s5mhkqdTo0YNr/VQFJ8XqSKbEkHgxIeb6KaLxEdMkecjGjj3eKtWrUylSpW81kNRfF6kimxKBAFjS/ny5RV2ESWR+IgGeKbWrFljH+AxY8aYzz//3HsnGPbu3Wt27txpjz179nitIsoU2qYQKggg6kB89tlnXquIE/v27bPVTTP1eoDER0xxYReJj3BDSer9+/fbUtRdu3Y94kw1l+A+x41+/PHHm2HDhtllmWxKiHt9/Pjx3m+JKFIom2JPlz59+phjjjnGdOnSxeadnHvuudamaNfeQfEh25ALlCtSqQnvZxEzKHdcu3Zts3TpUq9FCCGEyI4//elPVtiOGDHC9OvXz2tND3k+Ykznzp3NsmXLzIEDB7wWIYQQIjsWLVpkzx07drTnTJD4iDEdOnSwZ2coQgghRLYwpuBVb9CggdeSPhIfMaZ169b2LPEhhBAiVyxevLh4cpspEh8xBlXasGFDayhCCCFEtpBITI0YN7nNFImPmNO2bVuzYMEC75UQQgiROQsXLrTnNm3a2HOmSHzEnE6dOtl1/2vXrvVahBBCiMx4/fXXbQE7t3t6pkh8xJzu3bvbWg5z5szxWoQQQojMQHx069bNe5U5Eh9lgB49epjXXnvNeyWEEEKkD8KjatWqpm/fvl5L5qjImBBCCCECRZ4PIYQQQgSKxIcQQgghAkXiQwghhBCBIvEhhBBCiECR+BBCCCFEoEh8CCGEECJQJD6EEEIIESgSH0IIIYQIFIkPIYQQQgSKxIcQQgghAkXiQwghhBCBIvEhhBBCiECR+BBCCCFEoEh8CCGEECJQJD6EEEIIESgSH0IIIYQIEGP+D782CSUypAf2AAAAAElFTkSuQmCC;" parent="WIyWlLk6GJQsqaUBKTNV-1" vertex="1">
          <mxGeometry x="620" y="610" width="465.43" height="120" as="geometry" />
        </mxCell>
        <mxCell id="wd7movWwi8j4sVm-7Usf-30" value="&lt;font style=&quot;font-size: 16px;&quot;&gt;Вывод i&lt;sub&gt;2&lt;/sub&gt;&lt;/font&gt;" style="whiteSpace=wrap;html=1;" parent="WIyWlLk6GJQsqaUBKTNV-1" vertex="1">
          <mxGeometry x="1060" y="1030" width="120" height="60" as="geometry" />
        </mxCell>
        <mxCell id="wd7movWwi8j4sVm-7Usf-32" value="&lt;font style=&quot;font-size: 16px;&quot;&gt;Конец&lt;/font&gt;" style="strokeWidth=2;html=1;shape=mxgraph.flowchart.start_1;whiteSpace=wrap;" parent="WIyWlLk6GJQsqaUBKTNV-1" vertex="1">
          <mxGeometry x="1270" y="850" width="100" height="60" as="geometry" />
        </mxCell>
        <mxCell id="wd7movWwi8j4sVm-7Usf-33" style="edgeStyle=orthogonalEdgeStyle;rounded=0;orthogonalLoop=1;jettySize=auto;html=1;exitX=1;exitY=0.5;exitDx=0;exitDy=0;entryX=0;entryY=0.5;entryDx=0;entryDy=0;entryPerimeter=0;" parent="WIyWlLk6GJQsqaUBKTNV-1" source="wd7movWwi8j4sVm-7Usf-30" target="wd7movWwi8j4sVm-7Usf-32" edge="1">
          <mxGeometry relative="1" as="geometry" />
        </mxCell>
        <mxCell id="wd7movWwi8j4sVm-7Usf-34" value="&lt;font style=&quot;font-size: 16px;&quot;&gt;Да&lt;/font&gt;" style="text;html=1;align=center;verticalAlign=middle;resizable=0;points=[];autosize=1;strokeColor=none;fillColor=none;" parent="WIyWlLk6GJQsqaUBKTNV-1" vertex="1">
          <mxGeometry x="970" y="840" width="40" height="30" as="geometry" />
        </mxCell>
        <mxCell id="wd7movWwi8j4sVm-7Usf-35" style="edgeStyle=orthogonalEdgeStyle;rounded=0;orthogonalLoop=1;jettySize=auto;html=1;exitX=0;exitY=0.5;exitDx=0;exitDy=0;entryX=0;entryY=0.5;entryDx=0;entryDy=0;entryPerimeter=0;" parent="WIyWlLk6GJQsqaUBKTNV-1" source="wd7movWwi8j4sVm-7Usf-26" target="wd7movWwi8j4sVm-7Usf-19" edge="1">
          <mxGeometry relative="1" as="geometry">
            <Array as="points">
              <mxPoint x="760" y="1070" />
              <mxPoint x="430" y="1070" />
              <mxPoint x="430" y="480" />
            </Array>
          </mxGeometry>
        </mxCell>
        <mxCell id="wd7movWwi8j4sVm-7Usf-36" value="&lt;font style=&quot;font-size: 16px;&quot;&gt;Нет&lt;/font&gt;" style="text;html=1;align=center;verticalAlign=middle;resizable=0;points=[];autosize=1;strokeColor=none;fillColor=none;" parent="WIyWlLk6GJQsqaUBKTNV-1" vertex="1">
          <mxGeometry x="780" y="950" width="50" height="30" as="geometry" />
        </mxCell>
        <mxCell id="wd7movWwi8j4sVm-7Usf-40" value="" style="edgeStyle=orthogonalEdgeStyle;rounded=0;orthogonalLoop=1;jettySize=auto;html=1;" parent="WIyWlLk6GJQsqaUBKTNV-1" source="wd7movWwi8j4sVm-7Usf-37" target="wd7movWwi8j4sVm-7Usf-39" edge="1">
          <mxGeometry relative="1" as="geometry" />
        </mxCell>
        <mxCell id="wd7movWwi8j4sVm-7Usf-43" style="edgeStyle=orthogonalEdgeStyle;rounded=0;orthogonalLoop=1;jettySize=auto;html=1;exitX=0.5;exitY=1;exitDx=0;exitDy=0;entryX=0.5;entryY=0;entryDx=0;entryDy=0;" parent="WIyWlLk6GJQsqaUBKTNV-1" source="wd7movWwi8j4sVm-7Usf-37" target="wd7movWwi8j4sVm-7Usf-26" edge="1">
          <mxGeometry relative="1" as="geometry" />
        </mxCell>
        <mxCell id="wd7movWwi8j4sVm-7Usf-37" value="&lt;span style=&quot;font-size: 16px;&quot;&gt;i&lt;/span&gt;&lt;sub&gt;2&lt;/sub&gt;&lt;span style=&quot;font-size: 16px;&quot;&gt;&amp;nbsp;= error&lt;/span&gt;" style="rhombus;whiteSpace=wrap;html=1;" parent="WIyWlLk6GJQsqaUBKTNV-1" vertex="1">
          <mxGeometry x="755" y="830" width="190" height="100" as="geometry" />
        </mxCell>
        <mxCell id="wd7movWwi8j4sVm-7Usf-39" value="&lt;font style=&quot;font-size: 16px;&quot;&gt;Вывод ошибки&lt;/font&gt;" style="whiteSpace=wrap;html=1;" parent="WIyWlLk6GJQsqaUBKTNV-1" vertex="1">
          <mxGeometry x="1060" y="850" width="120" height="60" as="geometry" />
        </mxCell>
        <mxCell id="wd7movWwi8j4sVm-7Usf-41" style="edgeStyle=orthogonalEdgeStyle;rounded=0;orthogonalLoop=1;jettySize=auto;html=1;exitX=1;exitY=0.5;exitDx=0;exitDy=0;entryX=0;entryY=0.5;entryDx=0;entryDy=0;entryPerimeter=0;" parent="WIyWlLk6GJQsqaUBKTNV-1" source="wd7movWwi8j4sVm-7Usf-39" target="wd7movWwi8j4sVm-7Usf-32" edge="1">
          <mxGeometry relative="1" as="geometry" />
        </mxCell>
        <mxCell id="wd7movWwi8j4sVm-7Usf-42" value="&lt;font style=&quot;font-size: 16px;&quot;&gt;Да&lt;/font&gt;" style="text;html=1;align=center;verticalAlign=middle;resizable=0;points=[];autosize=1;strokeColor=none;fillColor=none;" parent="WIyWlLk6GJQsqaUBKTNV-1" vertex="1">
          <mxGeometry x="970" y="1020" width="40" height="30" as="geometry" />
        </mxCell>
        <mxCell id="wd7movWwi8j4sVm-7Usf-44" value="&lt;font style=&quot;font-size: 16px;&quot;&gt;Нет&lt;/font&gt;" style="text;html=1;align=center;verticalAlign=middle;resizable=0;points=[];autosize=1;strokeColor=none;fillColor=none;" parent="WIyWlLk6GJQsqaUBKTNV-1" vertex="1">
          <mxGeometry x="580" y="1020" width="50" height="30" as="geometry" />
        </mxCell>
      </root>
    </mxGraphModel>
  </diagram>
</mxfile>
